<svg xmlns="http://www.w3.org/2000/svg" width="800" height="480" viewBox="0 0 800 480"><rect width="100%" height="100%" fill="#020617"/><path fill="#ffffff" d="M168.19 240.495h6.24q2.29 0 3.99-.57 1.71-.58 2.84-1.65 1.13-1.06 1.69-2.6.56-1.53.56-3.43 0-1.79-.56-3.25t-1.67-2.48q-1.12-1.02-2.82-1.57-1.71-.54-4.03-.54h-6.24zm-8.33-22.54h14.57q4.49 0 7.78 1.06 3.28 1.05 5.42 2.94t3.18 4.53q1.04 2.63 1.04 5.76 0 3.26-1.09 5.97-1.08 2.71-3.25 4.67-2.17 1.95-5.44 3.04-3.27 1.08-7.64 1.08h-6.24v15.78h-8.33zm51.24 12.53q3.53 0 6.43 1.14 2.9 1.15 4.96 3.26t3.18 5.15q1.11 3.03 1.11 6.79 0 3.78-1.11 6.82-1.12 3.03-3.18 5.17t-4.96 3.29q-2.9 1.14-6.43 1.14-3.57 0-6.48-1.14-2.91-1.15-4.98-3.29-2.06-2.14-3.19-5.17-1.13-3.04-1.13-6.82 0-3.76 1.13-6.79 1.13-3.04 3.19-5.15 2.07-2.11 4.98-3.26 2.91-1.14 6.48-1.14m0 26.88q3.97 0 5.87-2.67 1.91-2.67 1.91-7.81 0-5.15-1.91-7.85-1.9-2.69-5.87-2.69-4.03 0-5.97 2.71t-1.94 7.83q0 5.11 1.94 7.79 1.94 2.69 5.97 2.69m28.3-24.46.47 3.59q1.48-2.85 3.53-4.48t4.84-1.63q2.2 0 3.53.97l-.5 5.73q-.15.56-.45.79-.29.23-.79.23-.46 0-1.38-.15-.91-.16-1.78-.16-1.27 0-2.26.38-.99.37-1.78 1.07-.79.69-1.4 1.68-.6 1-1.13 2.27v19.59h-7.66v-31.81h4.5q1.18 0 1.64.42.47.42.62 1.51m26.97 30.38q-4.15 0-6.37-2.34t-2.22-6.47v-17.76h-3.25q-.62 0-1.05-.4-.44-.41-.44-1.21v-3.04l5.12-.84 1.61-8.68q.15-.62.59-.96.43-.34 1.11-.34h3.97v10.01h8.5v5.46h-8.5v17.24q0 1.48.73 2.32t2 .84q.71 0 1.19-.17t.84-.36.64-.36q.27-.17.55-.17.34 0 .56.17t.47.52l2.29 3.71q-1.67 1.4-3.84 2.11-2.17.72-4.5.72m22.35-.5h-7.65v-26.04l-2.76-.43q-.9-.19-1.45-.64-.54-.45-.54-1.29v-3.13h4.75v-2.35q0-2.73.82-4.9t2.35-3.69q1.54-1.52 3.74-2.33 2.2-.8 4.96-.8 2.2 0 4.09.59l-.15 3.84q-.04.44-.25.7-.22.26-.58.4-.35.14-.82.19-.46.04-.99.04-1.36 0-2.43.3-1.07.29-1.82 1.02-.74.73-1.13 1.92-.39 1.2-.39 2.97v2.1h8.28v5.46h-8.03zm26.41-32.3q3.54 0 6.44 1.14 2.9 1.15 4.96 3.26t3.17 5.15q1.12 3.03 1.12 6.79 0 3.78-1.12 6.82-1.11 3.03-3.17 5.17t-4.96 3.29q-2.9 1.14-6.44 1.14-3.56 0-6.47-1.14-2.92-1.15-4.98-3.29t-3.19-5.17q-1.13-3.04-1.13-6.82 0-3.76 1.13-6.79 1.13-3.04 3.19-5.15t4.98-3.26q2.91-1.14 6.47-1.14m0 26.88q3.97 0 5.88-2.67t1.91-7.81q0-5.15-1.91-7.85-1.91-2.69-5.88-2.69-4.03 0-5.96 2.71-1.94 2.71-1.94 7.83 0 5.11 1.94 7.79 1.93 2.69 5.96 2.69m21.64-40.65h7.66v46.07h-7.66zm15.56 14.26h7.69v31.81h-7.69zm8.75-9.27q0 1-.41 1.87-.4.86-1.07 1.51-.66.65-1.56 1.04t-1.92.39q-1 0-1.88-.39t-1.53-1.04-1.04-1.51q-.39-.87-.39-1.87 0-1.02.39-1.92t1.04-1.55 1.53-1.04q.88-.38 1.88-.38 1.02 0 1.92.38.9.39 1.56 1.04.67.65 1.07 1.55.41.9.41 1.92m20.83 8.78q3.53 0 6.43 1.14 2.9 1.15 4.96 3.26t3.18 5.15q1.11 3.03 1.11 6.79 0 3.78-1.11 6.82-1.12 3.03-3.18 5.17t-4.96 3.29q-2.9 1.14-6.43 1.14-3.57 0-6.48-1.14-2.91-1.15-4.98-3.29-2.06-2.14-3.19-5.17-1.13-3.04-1.13-6.82 0-3.76 1.13-6.79 1.13-3.04 3.19-5.15 2.07-2.11 4.98-3.26 2.91-1.14 6.48-1.14m0 26.88q3.97 0 5.87-2.67 1.91-2.67 1.91-7.81 0-5.15-1.91-7.85-1.9-2.69-5.87-2.69-4.03 0-5.97 2.71t-1.94 7.83q0 5.11 1.94 7.79 1.94 2.69 5.97 2.69m46.16-16.87h6.23q2.29 0 4-.57 1.7-.58 2.83-1.65 1.14-1.06 1.69-2.6.56-1.53.56-3.43 0-1.79-.56-3.25-.55-1.46-1.67-2.48t-2.82-1.57q-1.71-.54-4.03-.54h-6.23zm-8.34-22.54h14.57q4.49 0 7.78 1.06 3.29 1.05 5.42 2.94 2.14 1.89 3.18 4.53 1.04 2.63 1.04 5.76 0 3.26-1.08 5.97-1.09 2.71-3.26 4.67-2.17 1.95-5.44 3.04-3.27 1.08-7.64 1.08h-6.23v15.78h-8.34zm43.93 14.95.46 3.59q1.49-2.85 3.53-4.48 2.05-1.63 4.84-1.63 2.2 0 3.53.97l-.49 5.73q-.16.56-.45.79-.3.23-.79.23-.47 0-1.38-.15-.92-.16-1.78-.16-1.27 0-2.27.38-.99.37-1.78 1.07-.79.69-1.39 1.68-.61 1-1.14 2.27v19.59h-7.65v-31.81h4.49q1.18 0 1.65.42.46.42.62 1.51m22.41 10.32h14.44q0-1.49-.41-2.81-.42-1.31-1.26-2.31-.84-.99-2.12-1.56-1.29-.58-2.99-.58-3.32 0-5.23 1.9-1.9 1.89-2.43 5.36m19.53 4.62h-19.69q.19 2.45.87 4.23t1.8 2.94q1.12 1.17 2.65 1.74t3.39.57 3.21-.43 2.36-.96 1.77-.96q.76-.44 1.47-.44.96 0 1.42.72l2.21 2.79q-1.28 1.49-2.86 2.49-1.58 1.01-3.3 1.61-1.72.61-3.5.86-1.78.24-3.46.24-3.31 0-6.17-1.1-2.85-1.1-4.96-3.25-2.1-2.15-3.31-5.33t-1.21-7.37q0-3.25 1.05-6.12 1.06-2.86 3.02-4.99 1.97-2.12 4.81-3.36t6.4-1.24q3.01 0 5.55.96t4.37 2.8q1.83 1.85 2.87 4.53t1.04 6.12q0 1.74-.38 2.34-.37.61-1.42.61m30.16-16.87h6.05l-12.62 31.81h-6.94l-12.62-31.81h6.32q.87 0 1.44.41.58.4.76 1.02l6.14 16.99q.5 1.49.87 2.91.37 1.43.65 2.85.31-1.42.68-2.85.37-1.42.9-2.91l6.26-16.99q.22-.62.78-1.02.56-.41 1.33-.41m10.36 0h7.68v31.81h-7.68zm8.74-9.27q0 1-.41 1.87-.4.86-1.07 1.51-.66.65-1.56 1.04t-1.92.39q-.99 0-1.88-.39-.88-.39-1.53-1.04t-1.04-1.51q-.39-.87-.39-1.87 0-1.02.39-1.92t1.04-1.55 1.53-1.04q.89-.38 1.88-.38 1.02 0 1.92.38.9.39 1.56 1.04.67.65 1.07 1.55.41.9.41 1.92m12.8 21.52h14.45q0-1.49-.42-2.81-.42-1.31-1.26-2.31-.83-.99-2.12-1.56-1.29-.58-2.99-.58-3.32 0-5.23 1.9-1.9 1.89-2.43 5.36m19.53 4.62h-19.68q.18 2.45.86 4.23.69 1.78 1.8 2.94 1.12 1.17 2.65 1.74 1.54.57 3.4.57t3.2-.43q1.35-.43 2.36-.96t1.77-.96q.76-.44 1.47-.44.96 0 1.43.72l2.2 2.79q-1.27 1.49-2.85 2.49-1.59 1.01-3.31 1.61-1.72.61-3.5.86-1.78.24-3.46.24-3.31 0-6.16-1.1-2.86-1.1-4.96-3.25-2.11-2.15-3.32-5.33t-1.21-7.37q0-3.25 1.05-6.12 1.06-2.86 3.03-4.99 1.96-2.12 4.8-3.36t6.4-1.24q3.01 0 5.55.96t4.37 2.8q1.83 1.85 2.87 4.53t1.04 6.12q0 1.74-.37 2.34-.38.61-1.43.61m47.12-16.87h5.83l-10.11 31.81h-6.14q-1.05 0-1.45-1.36l-5.71-18.39q-.28-.93-.51-1.84-.23-.92-.39-1.85-.18.93-.41 1.88-.24.95-.52 1.88l-5.79 18.32q-.37 1.36-1.65 1.36h-5.89l-10.07-31.81h6.11q.83 0 1.42.41.59.4.78 1.02l4.55 16.99q.35 1.39.61 2.73.26 1.33.45 2.66.34-1.33.73-2.66.38-1.34.82-2.73l5.27-17.05q.18-.62.73-1.02.54-.41 1.31-.41h3.38q.81 0 1.38.41.58.4.76 1.02l5.12 17.05q.4 1.39.76 2.74.35 1.35.69 2.68.41-2.63 1.15-5.42l4.68-16.99q.22-.62.78-1.02.56-.41 1.33-.41"/></svg>